<svg version="1.1" xmlns="http://www.w3.org/2000/svg" style="display: block;" viewBox="0 0 2048 759" width="864" height="320" preserveAspectRatio="none">
<defs>
	<linearGradient id="Gradient1" gradientUnits="userSpaceOnUse" x1="1191.04" y1="620.976" x2="1138.99" y2="621.043">
		<stop class="stop0" offset="0" stop-opacity="1" stop-color="rgb(15,22,30)"/>
		<stop class="stop1" offset="1" stop-opacity="1" stop-color="rgb(25,42,64)"/>
	</linearGradient>
	<linearGradient id="Gradient2" gradientUnits="userSpaceOnUse" x1="846.151" y1="607.684" x2="790.574" y2="623.872">
		<stop class="stop0" offset="0" stop-opacity="1" stop-color="rgb(14,19,26)"/>
		<stop class="stop1" offset="1" stop-opacity="1" stop-color="rgb(20,40,58)"/>
	</linearGradient>
	<linearGradient id="Gradient3" gradientUnits="userSpaceOnUse" x1="1048.89" y1="630.166" x2="1105.06" y2="618.518">
		<stop class="stop0" offset="0" stop-opacity="1" stop-color="rgb(12,21,30)"/>
		<stop class="stop1" offset="1" stop-opacity="1" stop-color="rgb(25,47,70)"/>
	</linearGradient>
	<linearGradient id="Gradient4" gradientUnits="userSpaceOnUse" x1="604.943" y1="649.78" x2="652.897" y2="619.15">
		<stop class="stop0" offset="0" stop-opacity="1" stop-color="rgb(11,14,18)"/>
		<stop class="stop1" offset="1" stop-opacity="1" stop-color="rgb(22,40,61)"/>
	</linearGradient>
	<linearGradient id="Gradient5" gradientUnits="userSpaceOnUse" x1="1063.4" y1="439.14" x2="1162.51" y2="405.585">
		<stop class="stop0" offset="0" stop-opacity="1" stop-color="rgb(29,47,70)"/>
		<stop class="stop1" offset="1" stop-opacity="1" stop-color="rgb(37,66,84)"/>
	</linearGradient>
</defs>
<path transform="translate(0,0)" fill="rgb(27,52,72)" d="M 113.63 113.163 C 122.721 113.872 139.31 113.377 148.912 113.389 L 217.559 113.429 C 224.08 113.422 246.176 111.842 249.743 114.922 C 250.294 117.964 250.223 118.418 249.669 121.472 C 238.961 129.01 223.834 114.932 213.411 147.203 C 215.512 158.231 224.175 179.044 228.499 190.408 C 240.075 221.386 251.873 252.281 263.892 283.09 C 269.106 296.656 281.096 325.619 283.714 338.83 C 289.469 315.691 297.941 292.984 305.761 270.453 L 331.702 193.384 C 337.363 176.228 344.559 158.368 347.587 140.735 C 341.599 123.946 332.924 127.222 321.244 121.142 C 319.164 118.077 319.676 119.327 319.759 115.215 L 321.268 114.15 C 384.134 114.664 481.545 98.9628 497.801 181.602 C 511.352 303.341 405.389 291.065 321.9 290.747 C 320.112 299.33 314.754 314.254 311.76 322.824 C 305.318 341.266 299.422 357.642 294.543 376.635 C 301.219 402.539 312.931 405.938 337.122 408.389 C 337.042 412.03 337.549 415.303 338.004 418.897 C 314.289 417.602 285.36 418.147 261.309 418.283 C 236.068 356.372 211.359 291.469 187.136 228.95 C 179.489 208.79 171.641 188.706 163.591 168.703 C 157.151 152.349 153.103 130.551 133.619 125.419 C 127.92 123.917 119.713 124.105 114.719 121.379 C 112.886 117.825 113.517 117.455 113.63 113.163 z M 377.045 136.424 C 370.696 147.076 365.03 167.011 360.518 179.207 C 349.298 209.53 339.984 242.942 328.359 272.911 C 340.843 273.018 371.517 273.932 382.788 272.106 C 400.73 269.711 418.682 264.746 430.441 249.129 C 451.026 221.789 452.876 163.078 424.646 139.753 C 416.048 132.648 405.241 131.75 394.555 131.436 C 386.563 131.897 383.718 131.663 377.045 136.424 z"/>
<path transform="translate(0,0)" fill="rgb(27,52,72)" d="M 912.025 342.117 C 948.342 344.67 1026.3 328.695 1039.42 376.635 C 1047.02 404.371 1030.44 420.007 1004.52 426.482 C 1017.26 442.395 1026.53 466.576 1040.3 482.958 C 1046.66 490.537 1064.38 493.576 1061.98 501.548 C 1052.22 503.115 1030.88 502.581 1020.56 502.523 C 1015.6 494.8 1010.88 486.66 1006.17 478.761 C 995.855 460.947 987.129 443.268 971.962 429.217 C 968.487 429.46 963.546 429.226 959.959 429.167 C 960.292 441.068 957.51 479.082 962.598 489.19 C 964.317 492.605 976.072 492.337 978.954 496.089 C 979.211 498.418 979.776 500.363 978.59 502.209 C 969.566 502.561 919.583 503.191 913.242 501.46 C 911.889 499.167 912.244 500.186 912.192 497.239 C 913.404 495.392 915.218 495.042 917.183 494.313 C 922.301 492.412 927.246 490.324 929.563 484.947 C 932.515 478.096 930.939 363.968 928.051 357.332 C 925.865 352.309 919.125 351.419 914.423 349.729 C 911.65 346.623 912.464 346.963 912.025 342.117 z M 960.218 417.872 C 975.525 418.024 989.385 419.882 1001.66 409.724 C 1013.13 397.491 1011.22 375.776 999.218 364.32 C 988.569 354.157 973.861 353.84 959.94 353.997 C 960.044 374.08 959.406 398.178 960.218 417.872 z"/>
<path transform="translate(0,0)" fill="rgb(27,52,72)" d="M 610.353 341.692 C 643.95 344.15 702.642 333.935 727.464 359.858 C 735.981 368.638 740.634 380.458 740.389 392.687 C 740.146 403.615 735.748 412.992 727.861 420.543 C 709.877 437.76 680.55 435.622 657.276 434.9 C 657.843 440.882 657.526 453.976 657.526 460.5 C 657.423 467.966 657.033 475.518 657.6 482.957 C 658.707 497.457 672.802 488.566 678.45 496.838 C 678.767 500.097 679.331 500.169 677.981 502.481 C 658.744 501.941 629.532 502.076 610.769 503.032 C 609.37 486.283 618.718 496.389 625.789 489.147 C 629.396 483.126 628.002 429.447 628.063 419.148 C 628.168 401.293 628.719 378.394 626.741 360.387 C 626.48 358.01 624.28 354.016 621.988 352.9 C 612.641 348.097 611.594 352.976 610.353 341.692 z M 657.439 422.842 C 672.71 423.66 688.408 425.277 700.797 414.49 C 712.629 400.771 710.902 375.703 696.875 363.806 C 685.334 354.016 671.974 354.227 657.745 353.991 C 657.944 376.942 657.842 399.894 657.439 422.842 z"/>
<path transform="translate(0,0)" fill="rgb(27,52,72)" d="M 1189.27 360.007 C 1188.03 358.583 1183.79 353.658 1182.35 353.103 C 1178.27 351.538 1172.12 353.413 1169.35 348.322 C 1170.87 338.427 1206.24 341.673 1214.39 342.87 C 1222.93 351.344 1231.62 362.909 1239.25 372.545 L 1283.51 428.763 C 1289.34 436.197 1297.89 448.149 1303.7 454.631 C 1302.94 435.638 1303.57 416.759 1303.18 397.831 C 1302.9 384.552 1305.76 362.081 1296 352.591 C 1288.11 348.656 1288.19 352.724 1284.11 349.996 C 1283.65 347.654 1284.39 345.746 1285 343.387 C 1288.88 340.965 1293.53 341.959 1298.56 342.151 C 1306.35 342.153 1325.54 341.716 1332.63 342.547 C 1334.88 352.006 1318.67 353.395 1318.31 360.797 C 1316.13 406.236 1318.45 455.694 1316.45 501.5 C 1316.45 501.5 1315.29 502.495 1315.05 502.704 C 1311.09 502.784 1308.56 502.898 1305.72 499.744 C 1270.95 461.057 1239.65 419.454 1206.64 379.333 C 1204.54 410.192 1206.91 441.942 1206.65 472.705 C 1206.39 503.87 1224.23 483.093 1223.58 502.013 C 1212.64 502.011 1179.42 503.664 1171.63 500.074 L 1170.11 498.36 C 1170.37 495.41 1170.15 496.387 1172.36 493.874 C 1182.9 491.083 1183.2 492.289 1189.92 483.807 C 1191.52 459.423 1191.24 433.864 1191.14 409.338 C 1191.09 395.133 1191.65 373.281 1189.27 360.007 z"/>
<path transform="translate(0,0)" fill="rgb(19,37,57)" d="M 1296 352.591 C 1288.11 348.656 1288.19 352.724 1284.11 349.996 C 1283.65 347.654 1284.39 345.746 1285 343.387 C 1288.88 340.965 1293.53 341.959 1298.56 342.151 C 1295.07 342.918 1293.99 342.534 1291.82 344.762 C 1293.08 348.553 1294.74 349.708 1296 352.591 z"/>
<path transform="translate(0,0)" fill="rgb(27,52,72)" d="M 1783.66 113.272 C 1797.63 115.085 1816.78 113.187 1831.89 114.315 L 1833.52 116.407 C 1832.89 125.88 1816.52 120.271 1815.78 135.679 C 1815 151.866 1815.17 167.967 1815.17 184.156 L 1815.24 274.982 C 1811.61 274.582 1808.03 274.412 1804.39 274.209 C 1800.51 269.844 1796.74 264.936 1793.05 260.358 C 1763.82 224.043 1732.61 188.022 1704.19 151.14 C 1703.19 165.269 1703.39 179.502 1703.36 193.659 C 1703.35 203.836 1700.96 254.669 1707.09 260.632 C 1707.19 260.738 1707.31 260.84 1707.42 260.944 C 1711.32 264.677 1716.7 263.458 1720.46 266.925 C 1721.85 269.746 1722.21 270.237 1721.79 273.338 C 1719.09 275.229 1717.1 274.419 1713.25 274.249 C 1698.58 274.366 1683.55 274.148 1668.86 274.087 L 1669.63 267.725 C 1672.18 264.435 1678.56 264.304 1682.23 262.655 C 1684.55 261.616 1686.13 259.405 1686.9 257.046 C 1690.02 247.474 1691.22 140.715 1687.19 130.621 C 1683.94 122.477 1672.88 125.601 1669.25 118.227 L 1670.29 115.511 C 1674.56 112.408 1706.95 114.331 1713.44 115.072 C 1721.82 123.863 1735.64 142.056 1743.71 152.065 C 1763.81 176.728 1783.6 201.636 1803.09 226.783 C 1799.51 199.025 1805.04 159.207 1799.85 131.025 C 1798.96 126.228 1788.86 122.717 1784.08 120.82 C 1782.5 117.698 1783.22 117.221 1783.66 113.272 z"/>
<path transform="translate(0,0)" fill="rgb(27,52,72)" d="M 1345.6 113.224 C 1354.71 115.649 1390.85 111.685 1394.96 115.473 L 1394.98 117.649 C 1390.97 124.565 1378.87 124.523 1378.95 136.52 C 1379.24 182.502 1377 229.359 1378.04 275.26 C 1369.92 273.951 1368.17 274.183 1362.79 267.544 C 1350.25 252.079 1337.38 236.606 1325.13 220.929 C 1306.5 197.085 1285.59 174.274 1267.99 149.71 C 1267.22 183.727 1267.36 219.587 1268.26 253.643 C 1268.46 261.078 1279.81 264.478 1285.47 268.212 C 1287.18 271.374 1286.97 270.044 1286.42 273.498 C 1282.65 275.006 1274.2 274.423 1269.75 274.344 C 1260.66 274.468 1242.71 275.135 1234.55 273.982 L 1233.45 271.062 C 1235.39 263.536 1248.03 264.683 1251.81 257.946 C 1254.68 252.831 1253.21 240.777 1253.32 234.363 C 1253.77 212.591 1253.83 190.814 1253.5 169.04 C 1253.39 157.838 1253.69 140.555 1251.66 129.909 C 1243.09 122.105 1243.76 125.53 1234.26 120.61 C 1233.24 120.079 1233.54 115.699 1233.51 113.91 C 1248.02 113.832 1262.53 113.989 1277.04 114.381 C 1285.42 122.923 1293.93 135.396 1301.79 144.803 C 1323.64 170.939 1344.16 199.291 1366.12 225.217 C 1364.98 200.477 1366.75 150.01 1362.96 130.054 C 1355.62 123.038 1354.54 124.704 1346.07 119.897 C 1344.67 119.101 1345.43 115.4 1345.6 113.224 z"/>
<path transform="translate(0,0)" fill="rgb(27,52,72)" d="M 824.536 112.022 C 829.245 111.869 835.623 112.241 840.456 112.384 C 852.81 140.626 862.857 170.836 874.897 199.339 C 883.703 220.187 890.727 241.206 901.084 261.477 C 905.718 263.677 912.58 264.578 914.786 266.136 C 915.695 269.699 915.873 270.365 915.293 273.958 C 909.576 275.84 859.919 274.612 850.181 274.732 C 848.959 272.723 849.228 270.392 849.185 267.936 C 850.536 265.861 850.456 266.381 853.211 266.293 C 859.09 266.105 863.12 262.868 868.063 259.697 C 862.822 248.821 858.858 231.314 851.789 221.348 C 850.886 220.074 848.983 220.584 846.996 220.644 C 835.249 220.712 808.356 221.522 797.962 219.978 C 793.24 233.114 788.614 246.284 784.084 259.488 C 789.987 263.344 804.463 266.821 801.167 274.295 C 785.121 274.305 769.077 274.481 753.035 274.823 C 751.926 272.105 752.361 270.343 752.687 267.425 C 757.421 262.939 765.257 266.12 769.417 255.705 C 788.373 208.248 805.201 159.28 824.536 112.022 z M 802.264 208.472 C 810.008 208.306 817.754 208.214 825.5 208.198 C 832.646 208.24 840.49 208.115 847.57 208.357 C 845.47 202.614 827.345 152.208 825.626 150.82 C 815.729 170.491 810.928 189.372 802.264 208.472 z"/>
<path transform="translate(0,0)" fill="rgb(27,52,72)" d="M 759.253 342.025 C 798.21 342.448 837.794 342.106 876.801 342.122 C 876.641 350.347 882.212 375.347 878.042 379.93 L 876.018 380.023 C 871.961 377.707 868.547 367.964 864.129 363.583 C 851.336 350.9 823.791 354.027 805.888 354.224 C 806.075 373.502 806.059 392.781 805.842 412.059 C 818.225 412.092 830.258 412.227 842.635 411.396 C 852.455 404.493 849.354 402.757 855.7 396.735 C 858.705 396.133 859.092 396.093 861.929 397.214 C 863.106 401.237 861.984 443.875 860.815 445.874 C 854.759 445.956 850.791 433.327 840.818 426.339 C 828.766 424.78 817.984 425.019 805.866 425.049 L 805.97 440.25 C 806.126 452.893 805.656 465.229 805.188 477.852 C 804.893 485.806 811.159 491.575 818.909 491.559 C 836.539 491.522 861.336 493.806 873.254 478.039 C 876.459 473.799 877.379 466.405 881.542 463.094 C 884.595 462.179 885.164 462.35 888.339 462.887 C 888.629 466.148 883.53 497.498 882.753 503.141 C 870.099 502.257 854.53 502.799 841.501 502.864 C 823.613 502.964 805.725 502.838 787.841 502.484 C 781.983 502.405 765.846 502.944 761.275 501.998 L 760.362 499.998 C 761.231 490.421 765.607 496.846 775.721 485.937 C 776.346 458.391 776.51 430.837 776.214 403.285 C 776.16 389.28 776.696 372.565 774.483 358.802 C 773.417 352.169 766.314 352.02 761.489 349.138 C 759.431 347.908 759.611 344.751 759.253 342.025 z"/>
<path transform="translate(0,0)" fill="rgb(27,52,72)" d="M 1203.78 275.031 C 1168.74 272.176 1121.17 276.092 1084.9 274.586 C 1080.27 274.394 1080.72 275.016 1078.16 272.227 C 1079.3 264.77 1091.73 265.125 1096.25 257.076 C 1097.83 246.241 1096.29 133.137 1094.52 128.633 C 1092.09 122.435 1082.61 123.335 1079.51 116.819 L 1080.52 115.299 C 1087.26 111.436 1176.96 115.289 1195.25 112.8 C 1197.22 119.655 1200.66 143.754 1198.81 150.438 C 1196.82 152.19 1197.82 151.729 1194.64 151.804 L 1193.48 151.027 C 1175.08 117.719 1161.21 124.733 1126.17 125.413 C 1125.64 144.64 1125.59 163.878 1126.02 183.108 C 1138.74 183.218 1151.47 183.162 1164.19 182.94 C 1169.91 177.796 1174.3 169.926 1178.65 167.722 L 1180.16 168.294 C 1181.5 171.791 1181.72 206.74 1181.06 212.777 C 1180.79 215.266 1180.23 215.965 1178.44 217.216 C 1174.79 215.276 1173.86 208.834 1169.51 204.607 C 1160.05 195.394 1138.89 197.325 1125.72 197.365 C 1125.67 214.286 1124.09 243.943 1128.14 258.732 C 1130.42 267.024 1183.18 262.549 1188.85 254.941 C 1192.91 249.496 1199.37 237.437 1204.66 233.86 C 1207.91 233.219 1206.76 232.971 1209.5 234.437 C 1209.49 241.694 1205.06 266.228 1203.78 275.031 z"/>
<path transform="translate(0,0)" fill="rgb(27,52,72)" d="M 1195.25 112.8 C 1197.22 119.655 1200.66 143.754 1198.81 150.438 C 1196.82 152.19 1197.82 151.729 1194.64 151.804 L 1193.48 151.027 C 1196.4 144.849 1194.39 122.079 1195.25 112.8 z"/>
<path transform="translate(0,0)" fill="rgb(27,52,72)" d="M 601.305 113.193 C 618.025 115.316 647.892 112.422 665.505 114.747 C 666.397 114.865 666.893 117.848 667.262 119.182 C 665.386 122.511 662.562 120.021 658.618 122.551 C 655.238 124.72 652.829 127.813 650.206 130.83 C 652.683 138.743 659.404 153.532 662.611 161.738 C 672.834 187.901 684.488 213.855 693.712 240.412 C 705.603 202.837 724.698 166.938 733.594 128.135 C 728.159 122.964 720.235 121.591 718.223 117.569 C 722.01 112.329 762.83 113.294 766.774 115.564 C 767.455 118.831 767.345 117.728 766.319 121.068 C 763.256 121.784 756.854 123.695 755.016 126.223 C 742.201 143.844 734.352 171.277 726.922 191.587 C 716.513 220.005 705.478 248.19 693.826 276.121 C 687.007 275.903 683.794 275.851 677.074 276.732 C 666.387 245.752 651.71 213.794 639.731 182.878 C 631.949 165.539 626.303 146.193 616.662 129.882 C 613.138 123.921 607.333 123.082 602.13 120.217 C 601.212 119.712 601.364 114.725 601.305 113.193 z"/>
<path transform="translate(0,0)" fill="rgb(27,52,72)" d="M 1420.49 112.677 C 1433.01 114.152 1455.91 113.597 1469.08 113.63 C 1498.29 113.993 1527.51 113.757 1556.72 112.919 C 1557.05 123.266 1563.27 147.05 1559.59 154.339 L 1556.44 154.767 C 1549.89 151.012 1550.9 139.893 1543.01 132.844 C 1532.32 123.288 1517.39 124.977 1503.82 124.951 C 1503.15 166.765 1502.14 219.117 1504.09 260.54 C 1504.39 260.729 1504.69 260.918 1504.99 261.107 L 1505.52 261.407 C 1510.21 264.097 1515.7 264.865 1521.04 265.96 C 1521.69 269.646 1521.65 270.143 1520.89 273.814 C 1512.67 276.024 1466.49 274.121 1454.28 274.447 C 1455.55 257.812 1460.72 271.706 1474.12 257.647 C 1473.79 230.176 1473.67 202.702 1473.74 175.228 C 1473.76 160.439 1473.32 138.729 1474.62 124.41 C 1443.12 126.044 1434.91 122.25 1422.93 153.56 C 1420.13 153.484 1416.73 153.854 1413.88 154.084 C 1416.17 140.295 1418.37 126.493 1420.49 112.677 z"/>
<path transform="translate(0,0)" fill="rgb(27,52,72)" d="M 935.378 112.916 C 949.715 115.97 985.448 111.871 999.838 114.488 C 1005.49 129.022 983.539 115.805 983.145 134.34 C 982.32 173.138 982.616 212.025 983.118 250.833 C 983.17 254.888 984.578 258.78 987.596 261.589 C 995.075 265.242 1007.71 262.078 1016.1 262.277 C 1046.65 260.228 1040.32 249.613 1053.81 233.804 C 1056.82 233.059 1057.24 232.967 1060.29 233.444 L 1061.4 235.048 C 1061.15 238.361 1060.61 240.983 1059.97 244.214 L 1055.7 275.166 C 1027.46 273.63 996.95 274.951 968.517 274.57 C 962.293 274.487 939.975 275.403 935.529 274.407 C 935.369 273.879 935.216 273.35 935.098 272.811 C 932.9 262.768 947.426 266.51 951.214 260.258 C 955.07 253.893 954.243 140.932 951.297 130.553 C 948.449 120.52 943.326 125.188 936.563 121.354 C 934.432 118.168 935.216 117.248 935.378 112.916 z"/>
<path transform="translate(0,0)" fill="rgb(27,52,72)" d="M 1579.98 112.752 C 1586.04 114.44 1632.88 113.345 1643.79 114.171 C 1645.53 116.375 1645.04 115.337 1645.41 118.419 C 1641.63 126.054 1627.35 120.421 1627.44 136.703 C 1627.67 174.902 1627.02 213.279 1627.51 251.456 C 1627.7 266.26 1634.45 261.318 1643.55 266.428 C 1645.59 267.573 1645.18 272.596 1645.28 274.928 C 1629.89 272.729 1600.17 275.948 1583.29 274.132 C 1580.96 273.882 1581.28 273.552 1579.86 271.534 C 1581.16 264.628 1594.24 264.906 1597.65 258.664 C 1599.82 248.312 1599.89 143.81 1595.55 127.438 C 1594.49 123.426 1586.12 122.061 1581.67 120.525 C 1579.26 117.825 1580.03 117.046 1579.98 112.752 z"/>
<path transform="translate(0,0)" fill="url(#Gradient5)" d="M 1082.24 342.116 C 1103.13 342.044 1124.02 342.076 1144.91 342.213 C 1144.69 344.866 1144.72 347.212 1144.73 349.866 C 1130.41 354.137 1128.47 356.76 1128.99 371.973 C 1130.3 409.819 1127.16 450.798 1129.79 488.361 C 1136.45 492.474 1142.32 491.973 1144.82 495.89 C 1144.92 498.656 1145.06 499.401 1144.03 502.007 L 1141.25 502.053 C 1124.89 502.148 1099.09 503.211 1083.7 502.251 C 1081.1 500.32 1081.87 501.354 1080.74 498.364 C 1082.02 493.832 1092.15 492.336 1098.29 488.271 C 1102.35 483.13 1099.61 378.681 1099.91 364.623 C 1100.16 352.87 1091.57 352.693 1083.66 349.395 C 1082.05 348.726 1082.33 343.889 1082.24 342.116 z"/>
<path transform="translate(0,0)" fill="rgb(19,37,57)" d="M 889.597 588.366 C 894.574 586.731 899.855 586.237 905.049 586.92 C 922.674 589.239 935.745 604.426 935.411 622.2 C 935.078 639.973 921.447 654.66 903.748 656.316 C 886.048 657.972 869.929 646.068 866.305 628.665 C 862.681 611.262 872.708 593.913 889.597 588.366 z M 905.17 592.733 C 898.382 591.349 894.603 591.632 888.757 595.597 C 879.353 604.432 879.036 613.999 879.935 626.841 C 880.234 647.023 903.432 662.757 916.231 641.69 C 927.343 623.4 922.222 603.758 905.17 592.733 z"/>
<path transform="translate(0,0)" fill="rgb(8,13,21)" d="M 889.597 588.366 C 894.574 586.731 899.855 586.237 905.049 586.92 C 903.926 590.07 904.222 589.077 905.17 592.733 C 898.382 591.349 894.603 591.632 888.757 595.597 L 889.597 588.366 z"/>
<path transform="translate(0,0)" fill="rgb(19,37,57)" d="M 1310.05 582.841 C 1318.88 602.293 1326.45 632.031 1338.82 649.426 C 1339.98 651.067 1346.48 654.521 1348.61 655.662 C 1343.12 655.602 1320.53 656.093 1317.55 653.737 C 1323.5 645.925 1322.99 639.501 1315.41 632.401 C 1303.54 633.013 1295.49 628.29 1291.73 640.511 C 1291.52 641.981 1289.44 647.735 1288.85 649.482 C 1293.08 651.086 1296.66 653.138 1300.63 655.279 C 1290.6 655.805 1280.02 655.663 1269.55 656.204 C 1271.46 654.964 1277.5 651.137 1278.5 649.622 C 1292.42 628.437 1296.7 606.088 1310.05 582.841 z M 1296.13 628.915 C 1302.87 628.238 1307.73 627.826 1314.48 627.83 C 1311.8 621.211 1308.55 610.652 1306.16 603.673 C 1304.67 608.379 1303.05 613.042 1301.29 617.654 C 1299.63 621.642 1298.24 625.121 1296.13 628.915 z"/>
<path transform="translate(0,0)" fill="rgb(8,13,21)" d="M 1291.73 640.511 C 1291.09 634.232 1296.47 621.545 1301.29 617.654 C 1299.63 621.642 1298.24 625.121 1296.13 628.915 C 1302.87 628.238 1307.73 627.826 1314.48 627.83 C 1314.71 629.03 1315.08 631.334 1315.41 632.401 C 1303.54 633.013 1295.49 628.29 1291.73 640.511 z"/>
<path transform="translate(0,0)" fill="url(#Gradient4)" d="M 613.333 649.893 C 615.962 650.961 619.303 651.887 620.638 654.252 C 618.782 656.212 616.564 656.2 613.566 656.324 C 609.321 656.539 605.072 655.996 601.018 654.721 L 599.977 653.417 C 614.279 641.505 625.748 590.539 632.548 586.575 C 640.109 589.128 654.705 642.007 662.689 650.239 C 664.441 652.046 672.693 654.698 675.005 655.754 C 669.195 655.74 645.609 656.568 642.524 653.894 C 646.254 646.897 647.546 640.113 641.363 633.46 C 635.076 634.063 625.541 633.753 619 633.728 C 617.083 639.107 615.194 644.495 613.333 649.893 z M 640.079 628.473 C 636.565 620.933 632.85 613.22 629.548 605.606 C 626.964 615.662 625.742 620.339 620.227 629.041 L 640.079 628.473 z"/>
<path transform="translate(0,0)" fill="rgb(8,13,21)" d="M 640.079 628.473 C 640.25 630.511 640.11 631.917 641.363 633.46 C 635.076 634.063 625.541 633.753 619 633.728 L 620.227 629.041 L 640.079 628.473 z"/>
<path transform="translate(0,0)" fill="url(#Gradient3)" d="M 1060.64 649.531 C 1064.42 651.174 1065.82 651.085 1068.12 654.138 C 1064.51 657.462 1052.69 656.042 1048.23 654.519 L 1046.98 653.146 C 1062.3 637.115 1068.14 606.669 1081.94 583.517 C 1090.71 603.487 1097.63 624.756 1106.91 644.689 C 1110.95 653.376 1115.66 650.761 1115.89 654.716 C 1110.87 656.072 1095.78 655.342 1090.04 655.194 L 1088.18 653.908 C 1090 650.101 1094.33 652.046 1095.09 648.268 C 1093.75 644.477 1090.55 636.167 1088.56 632.781 L 1066.34 632.878 C 1064.53 638.819 1062.83 643.72 1060.64 649.531 z M 1086.6 628.039 C 1083.56 620.979 1080.25 610.735 1077.31 603.167 C 1075.07 614.473 1073.79 617.812 1068.3 628.001 C 1073.44 628.815 1081.18 628.251 1086.6 628.039 z"/>
<path transform="translate(0,0)" fill="rgb(8,13,21)" d="M 1066.34 632.878 C 1066.68 630.374 1066.95 630.033 1068.3 628.001 C 1073.44 628.815 1081.18 628.251 1086.6 628.039 L 1088.56 632.781 L 1066.34 632.878 z"/>
<path transform="translate(0,0)" fill="url(#Gradient2)" d="M 776.852 588.41 C 786.82 588.987 797.817 588.01 809.039 588.713 C 805.155 590.953 800.269 593.288 796.199 595.349 C 803.334 610.765 809.406 624.94 814.966 640.973 C 817.899 633.776 829.78 601.508 830.892 595.773 C 829.666 592.853 828.735 593.099 825.441 591.232 L 825.203 589.623 C 828.962 587.986 843.627 586.891 846.447 590.132 C 830.632 600.204 821.818 655.935 811.078 656.699 C 807.19 654.339 786.733 603.058 783.273 595.087 C 778.86 591.911 777.998 592.639 776.852 588.41 z"/>
<path transform="translate(0,0)" fill="url(#Gradient1)" d="M 1181.9 655.58 C 1174.15 656.618 1168.23 657.272 1160.79 654.977 C 1127.72 644.758 1129.7 594.052 1164.39 587.752 C 1175.58 585.721 1183.01 588.232 1193.46 591.646 C 1192.84 596.962 1194.08 605.168 1194.71 610.737 C 1156.46 547.952 1126.61 659.174 1180.54 650.12 C 1181.34 652.267 1181.8 653.227 1181.9 655.58 z"/>
<path transform="translate(0,0)" fill="rgb(19,37,57)" d="M 983.49 590.021 C 988.705 591.035 992.31 589.405 993.287 590.672 L 991.589 593.106 C 972.186 605.511 972.238 635.944 989.654 648.275 C 1004.86 659.043 1017.53 639.268 1023.36 629.169 C 1023.01 636.664 1022.13 641.479 1020.69 648.845 C 990.071 672.369 950.638 641.098 966.351 605.891 C 969.576 598.664 976.12 592.844 983.49 590.021 z"/>
<path transform="translate(0,0)" fill="rgb(19,37,57)" d="M 691.672 655.287 C 691.096 655.417 689.294 655.425 688.595 655.444 L 688.051 654.077 C 690.202 650.65 696.581 651.117 696.676 648.269 C 697.234 631.435 696.96 614.177 696.719 597.281 C 696.683 594.8 689.815 592.418 688.645 589.569 C 693.277 588.372 702.93 588.601 708.087 588.543 C 707.835 594.511 707.278 601.812 708.502 607.555 C 709.092 618.701 707.325 641.748 711.106 650.52 C 717.567 650.589 723.02 650.81 729.051 648.425 L 728.887 654.469 C 716.54 655.976 704.074 656.25 691.672 655.287 z"/>
<path transform="translate(0,0)" fill="rgb(8,13,21)" d="M 729.051 648.425 L 728.887 654.469 C 716.54 655.976 704.074 656.25 691.672 655.287 C 700.665 652.517 703.186 659.688 711.106 650.52 C 717.567 650.589 723.02 650.81 729.051 648.425 z"/>
<path transform="translate(0,0)" fill="rgb(19,37,57)" d="M 1225.08 588.374 C 1235.21 587.696 1248.56 588.152 1258.96 588.251 C 1255.35 590.059 1249.91 592.172 1246.07 593.794 C 1244.72 604.068 1245.19 638.759 1245.86 649.769 C 1249.61 651.599 1250.63 651.317 1254.71 654.029 L 1254.81 656.2 C 1247.86 655.412 1228.05 657.246 1224.8 654.408 C 1227 651.623 1229.22 651.467 1232.89 650.066 C 1234.29 634.219 1233.42 618.189 1233.35 602.372 C 1233.28 586.014 1227.23 596.77 1225.08 588.374 z"/>
<path transform="translate(0,0)" fill="rgb(19,37,57)" d="M 730.228 589.255 C 740.174 592.911 747.428 597.862 752.007 607.877 C 755.695 616.139 755.98 625.522 752.802 633.994 C 749.984 641.494 743.58 648.815 736.202 652.005 C 733.828 653.005 731.383 653.828 728.887 654.469 L 729.051 648.425 C 747.102 632.399 744.278 605.545 723.083 593.775 C 724.339 590.722 727.337 590.033 730.228 589.255 z"/>
<path transform="translate(0,0)" fill="rgb(27,52,72)" d="M 983.49 590.021 C 991.287 586.644 1011.57 586.569 1018.46 590.925 C 1019.72 595.368 1019.98 604.52 1020.28 609.489 C 1011.94 598.924 1006.86 589.609 991.589 593.106 L 993.287 590.672 C 992.31 589.405 988.705 591.035 983.49 590.021 z"/>
<path transform="translate(0,0)" fill="rgb(27,52,72)" d="M 1180.54 650.12 C 1187.55 645.248 1193 636.852 1195.44 635.939 C 1197.19 639.324 1196.19 643.842 1195.78 647.904 C 1191.28 651.648 1187.66 653.901 1181.9 655.58 C 1181.8 653.227 1181.34 652.267 1180.54 650.12 z"/>
<path transform="translate(0,0)" fill="rgb(8,13,21)" d="M 708.087 588.543 C 715.824 588.59 722.468 588.68 730.228 589.255 C 727.337 590.033 724.339 590.722 723.083 593.775 L 708.8 593.99 L 708.502 607.555 C 707.278 601.812 707.835 594.511 708.087 588.543 z"/>
</svg>